<?xml version="1.0" encoding="UTF-8" standalone="no" ?>
<!DOCTYPE svg PUBLIC "-//W3C//DTD SVG 1.1//EN" "http://www.w3.org/Graphics/SVG/1.1/DTD/svg11.dtd">
<svg xmlns="http://www.w3.org/2000/svg" xmlns:xlink="http://www.w3.org/1999/xlink" version="1.1" width="1080" height="1080" viewBox="0 0 1080 1080" xml:space="preserve">
<desc>Created with Fabric.js 5.2.4</desc>
<defs>
</defs>
<rect x="0" y="0" width="100%" height="100%" fill="transparent"></rect>
<g transform="matrix(1 0 0 1 540 540)" id="a88fb9bd-2a4c-4617-a180-fb2c900cf455"  >
<rect style="stroke: none; stroke-width: 1; stroke-dasharray: none; stroke-linecap: butt; stroke-dashoffset: 0; stroke-linejoin: miter; stroke-miterlimit: 4; fill: rgb(255,255,255); fill-rule: nonzero; opacity: 1; visibility: hidden;" vector-effect="non-scaling-stroke"  x="-540" y="-540" rx="0" ry="0" width="1080" height="1080" />
</g>
<g transform="matrix(1 0 0 1 540 540)" id="7d02369a-73d1-4567-b539-0cae67ecf831"  >
</g>
<g transform="matrix(12.97 0 0 12.97 954.18 1227.7)"  >
<path style="stroke: none; stroke-width: 1; stroke-dasharray: none; stroke-linecap: butt; stroke-dashoffset: 0; stroke-linejoin: miter; stroke-miterlimit: 4; fill: rgb(255,255,255); fill-rule: evenodd; opacity: 1;" vector-effect="non-scaling-stroke"  transform=" translate(-96.38, -96.38)" d="M 0 0 L 192.756 0 L 192.756 192.756 L 0 192.756 L 0 0 z" stroke-linecap="round" />
</g>
<g transform="matrix(12.97 0 0 12.97 540 1346.58)"  >
<path style="stroke: none; stroke-width: 1; stroke-dasharray: none; stroke-linecap: butt; stroke-dashoffset: 0; stroke-linejoin: miter; stroke-miterlimit: 4; fill: rgb(0,0,0); fill-rule: evenodd; opacity: 1;" vector-effect="non-scaling-stroke"  transform=" translate(-67.83, -96.38)" d="M 79.72 78.63 C 79.797 77.438 80.137 76.207 80.394 75.062 C 80.647 73.935 80.95100000000001 72.842 81.186 71.711 C 81.397 71.03 81.74600000000001 70.49 82.36500000000001 70.117 C 83.2 69.613 84.421 69.59700000000001 85.322 69.12700000000001 C 86.07300000000001 68.73500000000001 86.715 68.18900000000001 87.07900000000001 67.41100000000002 C 87.813 65.84200000000001 87.38300000000001 63.88900000000002 87.161 62.250000000000014 C 87.036 61.33000000000001 86.813 60.34600000000002 86.813 59.417000000000016 C 86.813 58.323000000000015 86.06700000000001 56.872000000000014 85.83200000000001 55.777000000000015 C 85.55341731684753 54.453500299907816 85.3275722421456 53.11944645392109 85.155 51.77800000000002 C 84.79712945915796 49.12939018281314 84.54891749697998 46.467116717516895 84.41100000000002 43.79800000000003 C 84.365 42.853000000000016 84.455 41.77600000000002 83.98 40.91800000000001 C 82.985 39.12000000000001 80.372 38.408000000000015 78.57300000000001 37.74900000000002 C 77.46700000000001 37.34300000000002 76.35400000000001 36.94000000000002 75.30300000000001 36.40100000000002 C 74.549 36.01400000000002 72.74700000000001 35.155000000000015 72.45400000000001 34.29100000000002 C 71.94300000000001 32.78400000000002 72.278 30.791000000000018 70.10400000000001 31.68100000000002 C 70.06000000000002 31.69900000000002 70.15600000000002 30.814000000000018 70.18700000000001 30.715000000000018 C 70.299 30.35800000000002 70.48700000000001 30.02700000000002 70.69100000000002 29.714000000000016 C 71.11400000000002 29.063000000000017 71.63400000000001 28.481000000000016 72.04500000000002 27.820000000000018 C 72.39400000000002 27.259000000000018 72.16300000000001 26.47200000000002 72.36900000000001 25.85900000000002 L 72.77000000000001 24.28900000000002 C 74.88600000000001 22.541000000000018 74.74700000000001 19.66400000000002 74.427 19.31200000000002 C 74.331 19.10400000000002 74.061 19.02500000000002 74.00500000000001 18.965000000000018 C 73.86000000000001 18.813000000000017 73.88600000000001 18.208000000000016 73.96100000000001 17.83200000000002 C 74.537 16.802000000000017 74.28200000000001 14.816000000000018 74.14900000000002 14.144000000000018 C 74.04600000000002 13.645000000000017 73.77400000000002 13.109000000000018 73.54500000000002 12.591000000000019 C 72.96100000000001 11.267000000000019 72.46400000000001 9.875000000000018 70.82400000000001 9.35900000000002 C 68.659 8.78800000000002 63.18800000000001 8.96700000000002 60.70800000000001 11.97000000000002 C 58.55600000000001 14.180000000000021 59.50400000000001 20.01400000000002 59.100000000000016 20.100000000000023 C 59.015000000000015 20.03800000000002 58.64100000000001 20.222000000000023 58.62000000000002 20.650000000000023 C 58.46000000000002 21.722000000000023 58.490000000000016 24.239000000000022 60.05600000000002 25.349000000000025 C 60.32200000000002 25.523000000000025 60.14100000000002 26.744000000000025 60.14100000000002 27.184000000000026 C 60.10100000000002 28.144000000000027 60.98100000000002 29.585000000000026 60.92100000000002 30.065000000000026 C 60.92100000000002 30.785000000000025 60.67700000000002 31.211000000000027 61.28100000000002 31.565000000000026 C 61.71800000000002 31.852000000000025 64.23200000000001 32.78900000000002 64.03600000000002 33.83300000000003 C 63.91500000000001 34.47900000000003 64.27000000000001 35.474000000000025 64.45800000000001 36.08900000000003 C 64.64400000000002 36.70100000000003 64.84500000000001 37.48500000000003 65.24900000000001 37.99300000000002 C 65.938 38.86000000000002 67.81700000000001 36.58600000000003 68.27900000000001 36.18300000000002 C 69.97600000000001 35.26900000000002 70.82400000000001 37.94600000000002 72.26 38.53300000000002 C 73.82600000000001 45.059000000000026 73.111 57.21400000000003 72.717 59.874000000000024 C 72.205 62.477000000000025 71.999 60.59200000000003 71.999 60.59200000000003 C 71.72699999999999 54.80200000000003 62.04599999999999 33.193000000000026 60.251999999999995 32.85600000000002 C 58.818999999999996 32.166000000000025 58.099 34.29200000000002 56.727999999999994 34.29200000000002 C 56.327999999999996 33.63700000000002 56.592999999999996 32.941000000000024 57.047999999999995 32.45200000000002 C 58.013 31.79600000000002 57.724 31.42400000000002 57.26899999999999 31.05200000000002 C 56.89699999999999 30.72100000000002 56.65599999999999 30.021000000000022 56.89099999999999 29.40700000000002 C 57.00299999999999 28.73500000000002 56.84899999999999 27.84300000000002 56.28699999999999 27.286000000000023 C 55.92199999999999 26.924000000000024 54.37499999999999 26.521000000000022 54.767999999999994 25.868000000000023 C 54.92699999999999 25.604000000000024 55.705999999999996 25.688000000000024 55.94799999999999 25.538000000000025 C 56.635999999999996 25.109000000000027 56.324999999999996 24.547000000000025 55.642999999999994 24.448000000000025 C 55.038 24.360000000000024 54.742999999999995 23.877000000000024 54.647999999999996 23.233000000000025 C 54.56099999999999 22.639000000000024 54.74399999999999 22.041000000000025 54.763999999999996 21.448000000000025 C 54.773999999999994 21.168000000000024 54.776999999999994 20.876000000000026 54.67699999999999 20.609000000000027 C 54.57299999999999 20.332000000000026 54.27199999999999 20.185000000000027 54.16899999999999 19.957000000000026 C 54.15799999999999 19.932000000000027 54.11399999999999 19.853000000000026 54.14899999999999 19.251000000000026 C 54.158999999999985 19.069000000000027 54.423999999999985 19.312000000000026 54.43799999999999 19.093000000000025 C 54.38899999999999 19.117000000000026 55.04399999999999 8.761000000000024 55.04499999999999 8.739000000000026 C 55.00699999999999 8.535000000000025 53.43699999999999 8.433000000000026 53.34099999999999 8.568000000000026 C 53.36199999999999 8.586000000000027 52.765999999999984 18.986000000000026 52.77699999999999 18.998000000000026 C 52.77399999999999 19.193000000000026 53.09899999999999 19.025000000000027 53.094999999999985 19.196000000000026 C 53.11499999999999 19.375000000000025 53.05999999999999 19.892000000000028 53.03799999999998 20.090000000000025 C 51.53899999999998 21.168000000000024 52.548999999999985 24.266000000000027 50.396999999999984 24.897000000000027 C 48.960999999999984 25.31700000000003 50.134999999999984 27.346000000000025 49.64299999999999 28.188000000000027 C 49.32199999999999 28.736000000000026 48.72199999999999 28.999000000000027 48.463999999999984 29.649000000000026 C 48.22199999999999 30.261000000000024 48.18999999999998 30.947000000000024 48.219999999999985 31.597000000000026 C 48.27999999999999 32.93300000000003 48.96299999999999 33.60900000000002 48.960999999999984 35.46900000000002 C 48.95899999999998 36.983000000000025 50.33199999999999 38.044000000000025 51.746999999999986 38.32700000000002 C 53.539999999999985 39.03500000000002 54.899999999999984 37.49200000000002 56.008999999999986 38.27500000000002 C 56.02899999999999 39.44500000000002 55.89799999999999 40.54600000000002 55.408999999999985 41.45700000000002 C 54.31499999999998 43.49400000000002 51.463999999999984 44.03600000000002 49.67899999999999 42.25600000000002 C 47.21799999999999 41.29900000000002 48.569999999999986 39.907000000000025 48.307999999999986 38.73200000000002 C 48.326999999999984 38.816000000000024 45.47799999999999 39.72500000000002 45.19699999999999 39.91300000000002 C 44.40099999999999 40.44400000000002 44.54799999999999 41.15700000000002 44.54999999999999 42.01100000000002 C 44.56699999999999 48.13500000000002 43.74599999999999 54.198000000000015 43.01399999999999 60.26600000000002 C 42.89099999999999 61.28600000000002 42.77699999999999 62.30800000000002 42.65999999999999 63.32800000000002 C 42.57099999999999 64.11300000000001 42.30199999999999 65.04200000000002 42.575999999999986 65.79200000000002 C 43.47699999999999 68.26300000000002 45.923999999999985 70.31800000000001 48.04699999999998 71.62400000000001 C 49.472999999999985 72.501 50.896999999999984 70.85600000000001 52.16699999999998 71.39800000000001 C 53.40899999999998 71.92900000000002 53.21399999999998 74.23100000000001 53.28899999999998 75.28500000000001 C 53.41599999999998 77.105 53.23099999999998 78.96900000000001 52.92199999999998 80.76400000000001 C 52.30699999999998 84.346 51.152999999999984 87.81500000000001 50.61199999999998 91.41100000000002 C 50.45080834739021 92.4462597219342 50.34532315737728 93.48942813582792 50.295999999999985 94.53600000000002 C 50.275999999999975 95.02000000000001 50.03699999999998 97.61400000000002 50.41099999999998 97.91200000000002 C 50.64599999999998 98.42600000000002 51.38099999999998 98.40600000000002 51.30899999999998 99.81600000000002 C 50.65199999999999 107.77700000000002 50.32799999999998 115.75900000000001 49.99499999999998 123.73800000000001 C 49.66299999999998 131.711 49.32799999999998 139.68900000000002 48.64899999999999 147.64200000000002 C 48.29399999999999 151.8 47.527999999999984 155.91500000000002 47.362999999999985 160.09100000000004 C 47.22399999999998 163.59100000000004 45.90999999999998 167.29600000000005 46.87099999999999 170.75700000000003 C 47.28599999999999 172.25300000000004 46.609999999999985 174.21600000000004 47.588999999999984 175.45600000000005 C 47.502999999999986 176.90700000000004 46.612999999999985 177.52000000000004 46.41399999999999 178.06700000000004 C 45.826999999999984 180.21900000000002 47.41099999999999 182.21300000000002 48.502999999999986 182.96200000000005 C 50.72399999999999 184.70000000000005 51.82799999999999 184.30000000000004 53.201999999999984 183.94100000000006 C 55.15999999999998 183.35300000000007 55.942999999999984 181.65800000000007 57.182999999999986 180.15600000000006 C 57.77999999999999 178.84200000000007 56.59599999999998 177.48000000000008 56.725999999999985 175.91400000000007 C 59.43399999999998 175.3930000000001 59.18699999999998 156.25000000000006 60.70699999999999 150.33000000000007 C 61.014999999999986 148.07600000000008 62.33399999999999 140.07200000000006 62.960999999999984 132.40400000000008 C 63.16399999999999 130.87900000000008 63.08199999999999 129.98200000000008 63.316999999999986 128.4660000000001 C 64.56099999999999 123.28000000000009 65.99299999999998 116.0680000000001 66.84099999999998 109.67100000000009 L 67.10199999999998 109.67100000000009 C 67.78599999999997 114.7430000000001 67.85399999999997 120.5560000000001 69.03699999999998 124.9130000000001 C 70.57899999999998 131.6260000000001 70.65299999999998 133.1770000000001 69.44299999999998 137.44600000000008 C 68.37099999999998 143.27800000000008 68.37899999999999 151.0180000000001 68.58499999999998 156.91500000000008 C 68.79099999999998 162.8040000000001 68.71199999999997 169.21600000000007 69.90899999999998 174.99900000000008 C 69.96799999999998 175.28200000000007 70.08799999999998 175.2920000000001 70.28999999999998 175.27600000000007 C 70.55999999999997 175.23300000000006 70.77899999999998 176.81700000000006 70.78599999999997 177.51400000000007 C 70.76999999999997 177.62900000000008 70.80899999999997 177.94600000000005 70.82299999999998 178.06700000000006 C 71.05099999999997 179.73100000000005 74.61299999999999 180.22900000000007 75.14899999999997 180.30500000000006 C 76.79499999999997 180.53400000000008 78.65399999999997 179.04500000000007 80.93799999999997 181.13300000000007 C 80.93599999999998 181.12900000000008 81.20999999999998 181.20100000000008 81.29999999999997 181.20500000000007 C 85.09399999999997 181.82000000000008 89.70999999999997 182.05100000000007 92.88099999999997 179.95900000000006 C 93.45699999999997 179.53900000000007 93.26499999999997 178.54300000000006 92.18199999999997 178.25400000000005 C 89.43499999999997 177.62300000000005 87.28799999999997 175.86700000000005 84.91899999999997 174.54100000000005 C 84.06299999999997 174.06200000000004 82.97499999999997 172.84000000000006 83.19199999999996 172.35000000000005 C 83.26399999999997 172.10400000000004 83.60899999999997 172.03800000000004 83.28699999999996 171.01800000000006 C 80.54599999999996 161.62000000000006 81.04799999999996 149.10600000000005 82.22199999999997 139.25000000000006 C 82.25399999999996 138.13900000000007 83.13199999999996 136.82600000000005 83.28699999999996 135.51400000000007 C 84.39599999999996 121.48300000000006 81.56799999999997 108.09800000000007 81.56799999999997 94.45700000000006 C 81.96999999999997 94.15600000000006 82.16599999999997 93.32900000000006 81.87199999999997 92.65300000000006 C 81.36799999999997 90.60900000000007 81.01799999999997 88.52700000000006 80.59599999999998 86.46500000000006 C 80.30899999999997 85.06800000000005 80.14399999999998 82.83500000000006 79.81299999999997 81.59400000000007 C 79.69299999999997 81.13700000000007 79.68999999999997 79.09800000000007 79.71999999999997 78.63000000000007 z M 53.659 25.35 L 53.463 25.611 C 53.137 25.219 53.137 24.567 53.463 24.175 C 53.855000000000004 24.436 53.728 24.970000000000002 53.659 25.35 z M 60.967999999999996 68.358 C 60.641999999999996 69.533 59.07599999999999 68.88000000000001 58.162 69.07600000000001 C 57.705 68.88100000000001 57.966 68.424 57.900999999999996 68.09700000000001 C 59.598 66.27000000000001 58.488 63.59400000000001 58.162 61.50600000000001 L 60.967999999999996 61.50600000000001 C 61.622 63.52900000000001 62.208 66.465 60.967999999999996 68.358 z M 75.979 47.931000000000004 C 75.872 47.906000000000006 76.004 46.462 76.17699999999999 46.44800000000001 C 76.482 46.46200000000001 81.333 46.59400000000001 80.482 49.105000000000004 C 79.143 48.871 77.079 48.507000000000005 75.979 47.931000000000004 z" stroke-linecap="round" />
</g>
</svg>